<svg width="97" height="96" viewBox="0 0 97 96" fill="none" xmlns="http://www.w3.org/2000/svg">
<path d="M53.1176 76.2845C50.9133 75.0285 49.1193 76.0423 49.1042 78.5687C49.1042 81.0956 50.8979 84.1665 53.1022 85.4375C55.3066 86.7084 57.1005 85.6947 57.1005 83.1682C57.1157 80.6263 55.337 77.5703 53.1176 76.2845ZM51.229 76.9865C51.3512 77.0566 51.4728 77.1794 51.5635 77.3412C52.0113 78.1132 51.3367 78.5129 50.882 77.7278C50.5709 77.2102 50.7989 76.739 51.229 76.9865ZM51.2124 82.4233C51.0898 82.3529 50.9663 82.2289 50.8696 82.0676C50.5608 81.5172 50.7981 81.0752 51.2109 81.3119C51.335 81.3831 51.4582 81.5097 51.5511 81.67C51.8613 82.2049 51.6324 82.6639 51.2124 82.4233ZM53.1044 82.4959C52.3182 82.0439 51.6796 80.9434 51.6823 80.0444C51.6849 79.1343 52.3275 78.7697 53.1138 79.2214C53.9097 79.6786 54.5481 80.7795 54.5454 81.6896C54.543 82.5886 53.9002 82.9532 53.1044 82.4959ZM54.9979 84.5982C54.5699 84.3526 54.3415 83.6336 54.6571 83.4548C54.8879 83.3239 55.2003 83.6018 55.3365 83.8451C55.6482 84.3818 55.4157 84.8385 54.9979 84.5982ZM55.3488 79.5164C55.6753 80.0791 55.4007 80.4912 55.0101 80.2666C54.5972 80.0295 54.3553 79.3038 54.6695 79.1259C54.7656 79.0713 55.2124 79.2806 55.3488 79.5164Z" fill="#2D292D"></path>
<path d="M57.8431 57.7711C57.5211 57.1147 62.5801 67.4279 62.6703 67.6118C72.1043 62.1388 71.0803 62.7354 86.5728 53.7613L81.7455 43.9208C72.492 49.3215 75.0896 47.8068 57.8431 57.7711Z" fill="#2D292D"></path>
<path d="M52.0472 59.0142C51.9076 58.9346 46.4103 55.7874 46.277 55.7107L46.2546 63.2269C54.2431 67.8197 57.2483 69.5233 57.1712 69.4794C57.122 69.3789 53.3282 61.6305 52.0472 59.0142Z" fill="#2D292D"></path>
<path d="M48.2476 65.3218L46.5538 64.3512C46.3807 64.2533 46.1637 64.3116 46.0653 64.4817C45.9669 64.6518 46.0255 64.8698 46.1965 64.9677L47.8903 65.9384C48.0632 66.0361 48.2802 65.9771 48.3788 65.8078C48.4772 65.6377 48.4186 65.4197 48.2476 65.3218Z" fill="#2D292D"></path>
<path d="M68.3562 77.5476L68.3676 81.6028L73.7247 78.5248L73.7131 74.4695L68.3562 77.5476ZM71.0526 79.6452C70.2679 80.0962 69.6472 79.7442 69.6446 78.8468C69.6421 77.9321 70.2588 76.8692 71.0435 76.4184C71.813 75.976 72.4489 76.3193 72.4514 77.2341C72.454 78.1315 71.8222 79.2031 71.0526 79.6452Z" fill="#2D292D"></path>
<path d="M94.2324 66.7413L94.2208 62.6858L88.8638 65.764L88.8754 69.8193L94.2324 66.7413ZM91.5509 64.6347C92.3207 64.1926 92.9414 64.5447 92.944 65.4592C92.9465 66.3565 92.3298 67.4196 91.5602 67.8619C90.7757 68.3127 90.1397 67.9694 90.1373 67.0721C90.1346 66.1572 90.7664 65.0857 91.5509 64.6347Z" fill="#2D292D"></path>
<path d="M74.5588 74.1737L74.5618 75.2264L88.0223 67.4921L88.0194 66.4395L74.5588 74.1737Z" fill="#2D292D"></path>
<path d="M74.5683 77.5212L88.0288 69.7872L88.026 68.7346L74.5654 76.4687L74.5683 77.5212Z" fill="#2D292D"></path>
<path d="M3.72085e-06 69.8133C3.72085e-06 69.9137 0.0424013 83.1387 0.0436847 83.2393C0.0441756 83.3277 0.091783 83.4098 0.168838 83.4547L21.8027 95.9663C21.8025 95.9662 21.8029 95.9664 21.8027 95.9663C21.8028 95.9664 21.8036 95.9667 21.8037 95.9668C21.8425 95.9888 21.8857 96 21.9289 96C21.972 96 22.0157 95.9888 22.0545 95.9663L34.7843 88.6518C34.8624 88.6073 34.9105 88.5243 34.91 88.4344L34.8687 75.0104C34.8683 74.9215 34.8206 74.839 34.7426 74.7945C34.7388 74.7924 34.7343 74.7933 34.7304 74.7913L33.8016 74.2553L34.7833 73.6911C34.8614 73.6467 34.9095 73.5636 34.909 73.4738L34.9006 70.6675L43.8791 75.8118C43.8791 75.8117 43.8792 75.8118 43.8791 75.8118L47.3467 77.8028C47.3868 81.3403 49.8858 85.6188 52.965 87.3877C54.7616 88.4208 56.811 88.5996 58.0385 86.9597L60.6453 85.4609L61.7015 86.0678C61.7706 86.2497 61.6574 86.0859 65.4452 88.2118C65.4529 88.2175 65.4567 88.2268 65.4651 88.2317C65.4659 88.2326 65.464 88.2296 65.4705 88.2366C65.5418 88.2766 65.6226 88.2794 65.6923 88.2508C65.6974 88.2487 65.6996 88.2433 65.7044 88.2409C66.0591 88.0667 65.481 88.375 96.8722 70.3096C96.9503 70.2652 96.9979 70.1826 96.9979 70.0932C96.9859 67.6697 97.0265 67.7266 96.9642 67.6189C96.9599 67.6115 96.9511 67.6077 96.946 67.6007C96.9257 67.5728 96.9037 67.5454 96.8727 67.5274L95.9324 66.9852L95.952 59.8309C95.952 59.777 95.9303 59.729 95.8995 59.6868C95.8948 59.6802 95.8984 59.6705 95.8931 59.6644L90.8907 53.9562C83.5463 38.9749 84.0301 39.8833 83.9294 39.8256L74.3628 34.3233L74.399 24.1269C74.3992 24.1236 74.4015 24.1209 74.4015 24.1176C74.4015 24.0287 74.3534 23.9461 74.2759 23.9017L32.7529 0.0337029C32.6749 -0.0112343 32.5782 -0.0112343 32.5011 0.0337029L2.46884 17.4107C2.45853 17.4149 2.44712 17.4135 2.43731 17.419C2.35976 17.4635 2.31166 17.546 2.31166 17.6354L2.23117 51.7569C2.23117 51.8463 2.27878 51.9293 2.35682 51.9738L3.55749 52.6634L0.136446 54.629C0.13301 54.6308 0.129022 54.63 0.125648 54.6319C0.0476111 54.6763 -0.000487096 54.7594 3.72085e-06 54.8493C0.091838 68.9824 -0.0732585 68.352 0.165403 68.4897L1.10602 69.0336L0.125648 69.5975C0.0481019 69.6419 3.72085e-06 69.7244 3.72085e-06 69.8133ZM0.545771 83.0942L0.506507 70.2508L21.6363 82.4749C21.6455 85.4483 21.6668 92.3184 21.6761 95.3147L0.545771 83.0942ZM22.1788 95.3176C22.1639 90.5106 22.1538 87.2591 22.1389 82.47C22.2395 82.4122 26.7675 79.8114 26.479 79.9771V84.1425L28.2729 81.3138L30.0668 82.0534V77.9171L34.3676 75.4478L34.4069 88.2913L22.1788 95.3176ZM29.8157 77.4818L29.0068 77.0112L33.3002 74.5444L34.1123 75.0131L29.8157 77.4818ZM0.755526 54.8507L5.09663 52.3564L26.2288 64.5784L26.0294 64.693L21.8863 67.0719L1.70277 55.3986L0.755526 54.8507ZM29.8166 62.517L8.68443 50.295L12.9836 47.8249L34.1159 60.0468L29.8166 62.517ZM22.1826 80.3545C22.1776 79.0358 22.2006 85.1127 22.1341 67.5085L26.0422 65.263L26.479 65.0121V69.1788L28.2729 66.3501L30.0668 67.0897V62.9521L34.3676 60.4825L34.4059 73.3307L22.1826 80.3545ZM53.7316 57.142L44.5586 51.8663C47.0379 50.4317 66.7189 39.0441 74.1205 34.7614L83.2918 40.0362C83.1788 40.1016 55.6222 56.0619 53.7316 57.142ZM69.2094 24.1205L44.0854 38.6538L7.51707 17.6354L32.6376 3.10995L69.2094 24.1205ZM73.8602 34.3333C59.8861 42.4188 53.0627 46.3669 44.3102 51.4311C44.3106 51.3307 44.3492 40.9957 44.3468 41.6494C47.383 39.8929 33.402 47.9813 73.895 24.555L73.8602 34.3333ZM47.845 77.6959C47.8551 74.4288 50.1149 73.1267 52.9866 74.7916C55.8413 76.433 58.349 80.4915 58.349 83.9984C58.349 84.0205 58.3639 84.0407 58.3712 84.0624C58.3602 85.6355 57.8325 86.8011 56.882 87.3457C53.6167 89.2128 47.83 83.1352 47.845 77.6959ZM61.6761 85.4779L60.6193 84.8698C60.5813 80.3491 57.4009 74.89 53.4506 72.6277C49.5085 70.3703 46.3121 72.1259 46.2177 76.5782L44.2572 75.4515C44.2612 73.0766 44.2921 54.7496 44.2962 52.3099L53.5436 57.6178C61.0893 73.0007 60.3453 71.5586 60.4315 71.6587C60.5209 71.7609 65.7136 77.6918 65.3846 77.316L65.3567 84.0294C65.2553 83.9743 62.9281 82.7097 63.0739 82.789C62.863 82.6735 62.7195 82.8925 62.2287 83.1531C61.5075 83.6293 61.6972 83.0824 61.6761 85.4779ZM90.6298 54.4194L95.3138 59.7649C87.7089 64.1626 73.1266 72.5953 65.6894 76.896C65.6019 76.7959 60.7098 71.1996 61.0218 71.5566C71.583 65.4401 90.5291 54.4776 90.6298 54.4194ZM95.4298 67.0082C54.9068 90.2913 68.8832 82.261 65.8597 83.9982L65.8872 77.3604C72.1499 73.7388 89.161 63.9017 95.4484 60.2659L95.4298 67.0082ZM62.1885 84.0404L65.3395 85.7922V87.5811L62.1812 85.8349L62.1885 84.0404ZM96.4953 69.9491C93.7258 71.5411 103.612 65.858 65.8423 87.5696L65.8493 85.7857C69.1469 83.891 93.8099 69.7201 96.4953 68.177V69.9491ZM60.7298 71.1412C60.7202 71.1217 59.5568 68.7254 54.0651 57.5413C54.1001 57.5208 54.0319 57.5605 54.351 57.3755L54.35 57.375C57.2615 55.7137 43.9191 63.4136 83.6912 40.3964L90.3495 53.993C69.7391 65.9264 81.015 59.404 60.7298 71.1412ZM2.73424 51.6133L2.81326 18.0781L43.8424 41.6526C43.7918 60.9531 43.9108 14.6208 43.7546 75.1633L34.8989 70.0894L34.8687 60.0493C34.8687 60.0495 34.8687 60.049 34.8687 60.0493C34.8687 60.049 34.8687 60.0481 34.8687 60.0478C34.8687 59.9584 34.8211 59.8759 34.7436 59.8309C11.7217 46.5752 13.1021 47.1814 12.8584 47.3194L4.06019 52.3746L2.73424 51.6133ZM0.504053 55.2843L4.25338 57.4527L21.6309 67.5069C21.6359 68.8247 21.613 62.7492 21.6793 80.3516C16.8464 77.557 33.3522 87.1014 0.542336 68.1292L0.504053 55.2843ZM22.0579 81.0037L25.4194 79.0724L26.2282 79.543C26.1277 79.6008 21.5983 82.202 21.8868 82.0364L0.753624 69.8136L1.60669 69.3231C23.1277 81.7676 21.867 81.1167 22.0579 81.0037Z" fill="#2D292D"></path>
<path d="M23.8091 74.4074L23.8168 77.8085L29.1491 74.7448L29.1376 71.3436L23.8091 74.4074Z" fill="#2D292D"></path>
<path d="M24.0042 89.1671L24.0119 92.5682L29.3442 89.5045L29.3327 86.1034L24.0042 89.1671Z" fill="#2D292D"></path>
</svg>